# xmcd
#
# Track frame offsets: 
#        150
#        12861
#        26294
#        39252
#        53877
#        68209
#        81294
#        96116
#        108609
#        124795
#        145452
#
# Disc length: 2087 seconds
#
# Revision: 0
# Processed by: cddbd v1.5.2PL0 Copyright (c) Steve Scherf et al.
# Submitted via: ExactAudioCopy v0.99pb4
#
DISCID=8e08250b
DTITLE=Hungry Hill - Ride
DYEAR=2007
DGENRE=Bluegrass
TTITLE0=Ride
TTITLE1=Ain't Got No Sugar Dad Now
TTITLE2=Gopherville
TTITLE3=Roundhouse
TTITLE4=Crooked Log Cabin
TTITLE5=Broken Spoke
TTITLE6=FT's Blues
TTITLE7=When My Time Has Come
TTITLE8=Yukon Drive
TTITLE9=Shining Moments
TTITLE10=What Would You Say
EXTD=
EXTT0=
EXTT1=
EXTT2=
EXTT3=
EXTT4=
EXTT5=
EXTT6=
EXTT7=
EXTT8=
EXTT9=
EXTT10=
PLAYORDER=
